<svg xmlns="http://www.w3.org/2000/svg" viewBox="0 0 64 64" fill="none">
  <rect x="2" y="2" width="60" height="60" rx="10" fill="#1A73E8"/>
  <path d="M18 21h18a6 6 0 0 1 6 6v10a6 6 0 0 1-6 6H28l-8 6v-6h-2a6 6 0 0 1-6-6V27a6 6 0 0 1 6-6z" fill="#FFFFFF" opacity="0.95"/>
  <circle cx="22" cy="32" r="2.4" fill="#1A73E8"/>
  <circle cx="30" cy="32" r="2.4" fill="#1A73E8"/>
  <circle cx="38" cy="32" r="2.4" fill="#1A73E8"/>
  <path d="M45 17l3 3m0-3l-3 3" stroke="#FFFFFF" stroke-width="2" stroke-linecap="round"/>
</svg>
